<svg xmlns="http://www.w3.org/2000/svg" viewBox="0 0 24 24" stroke-linecap="round" stroke-linejoin="round" stroke-width="2" stroke="#000" fill="none">
  <path d="m7.81,22.4a1,1 0 0 1 -1,-0.81a61,61 0 0 1 -0.81,-10.19a1,1 0 0 1 1,-1l8,0a1,1 0 0 1 1,1a61,61 0 0 1 -0.83,10.18a1,1 0 0 1 -1,0.81l-6.36,0.01z" fill="#0bafee" stroke="none"></path>
  <path d="m15.86,17.4l2.44,-0.6a2.25,2.25 0 0 0 1.7,-2.15l0,0a2.25,2.25 0 0 0 -2.25,-2.25l-1.55,0"></path>
  <path d="m15,4.7l0,2m-4,-2l0,2m-4,-2l0,2m-4,16l18,0m-13.19,0a1,1 0 0 1 -1,-0.81a61,61 0 0 1 -0.81,-10.19a1,1 0 0 1 1,-1l8,0a1,1 0 0 1 1,1a61,61 0 0 1 -0.83,10.18a1,1 0 0 1 -1,0.81l-6.36,0.01z"></path>
</svg>
